<?xml version="1.0" encoding="UTF-8"?>
<svg id="Capa_2" xmlns="http://www.w3.org/2000/svg" version="1.1" viewBox="0 0 65.5 65.5">
  <!-- Generator: Adobe Illustrator 30.1.0, SVG Export Plug-In . SVG Version: 2.1.1 Build 136)  -->
  <defs>
    <style>
      .st0 {
        fill: #89d329;
      }

      .st1 {
        fill: #10384f;
      }

      .st2 {
        fill: #00bcff;
      }
    </style>
  </defs>
  <g id="Capa_1-2">
    <sodipodi:namedview id="namedview13" bordercolor="#666666" borderopacity="1" gridtolerance="10" guidetolerance="10" objecttolerance="10" pagecolor="#ffffff" showgrid="false"/>
    <g id="g43">
      <g id="g975">
        <path id="path6" class="st0" d="M58.8,31.1c-.8-13.6-12.2-24.5-26.1-24.5S7.5,17.5,6.7,31.1c0,.6,0,1.1.1,1.7.6,4.5,2.3,8.7,4.9,12.2,4.7,6.5,12.4,10.7,21,10.7-12.1,0-22-9.4-22.8-21.3,0-.6,0-1.1,0-1.7s0-1.1,0-1.7c.8-11.8,10.7-21.3,22.8-21.3s16.3,4.2,21,10.7c2.6,3.5,4.3,7.7,4.9,12.2,0,.6.1,1.1.1,1.6,0-.6,0-1.1,0-1.7s0-1,0-1.6"/>
        <path id="path8" class="st2" d="M6.7,34.4c.8,13.6,12.2,24.5,26.1,24.5s25.2-10.9,26.1-24.5c0-.6,0-1.1-.1-1.7-.6-4.5-2.3-8.7-4.9-12.2-4.7-6.5-12.4-10.7-21-10.7,12.1,0,22,9.4,22.8,21.3,0,.6,0,1.1,0,1.7s0,1.1,0,1.7c-.8,11.9-10.7,21.3-22.8,21.3s-16.3-4.2-21-10.7c-2.6-3.5-4.3-7.7-4.9-12.2,0-.6-.1-1.1-.1-1.6,0,.6,0,1.1,0,1.7s0,1,0,1.6"/>
      </g>
      <g id="g28">
        <path id="path858" class="st1" d="M29.2,11.6v7.2h5c1.2,0,2.2-1,2.2-2.2s-.3-1.2-.7-1.6c.3-.3.5-.8.6-1.3,0-1.2-1-2.1-2.1-2.1h-5ZM30.9,13.1h3c.3,0,.6.3.6.6s-.3.6-.6.6h-3v-1.2ZM30.9,15.8h3.1c.4,0,.7.3.7.7s-.3.7-.7.7h-3.1v-1.4Z"/>
        <path id="path852" class="st1" d="M31.6,20.2l-3.6,7.2h1.9l.6-1.2h4.1l.6,1.2h1.9l-3.6-7.2h-1.7ZM32.4,22l1.2,2.6h-2.5l1.2-2.6Z"/>
        <path id="path848" class="st1" d="M34.9,29h2.1l-3.6,4.7v2.5h-1.7v-2.5l-3.6-4.7h2.1l2.5,3.3,2.4-3.3Z"/>
        <path id="path844" class="st1" d="M46.7,29v7.2h1.7v-2.8h1.3l2.1,2.8h2.1l-2.1-2.8c.9-.3,1.6-1.1,1.6-2.1s-1-2.3-2.2-2.3h-4.4ZM48.5,30.5h2.5c.3,0,.7.3.7.7s-.3.7-.7.7h-2.5v-1.4Z"/>
        <path id="path858-0" class="st1" d="M11.6,29v7.2h5c1.2,0,2.2-1,2.2-2.2s-.3-1.2-.7-1.6c.3-.3.5-.8.6-1.3,0-1.2-1-2.1-2.1-2.1h-5ZM13.2,30.5h3c.3,0,.6.3.6.6s-.3.6-.6.6h-3v-1.2ZM13.2,33.2h3.1c.4,0,.7.3.7.7s-.3.7-.7.7h-3.1v-1.4Z"/>
        <path id="path852-8" class="st1" d="M23.4,29l-3.6,7.2h1.9l.6-1.2h4.1l.6,1.2h1.9l-3.6-7.2h-1.7ZM24.3,30.8l1.2,2.6h-2.5l1.2-2.6Z"/>
        <path id="path830-7" class="st1" d="M44.5,29v1.6h-4.8v1.2h4.7v1.6h-4.7v1.4h4.8v1.6h-6.5v-7.2h6.5Z"/>
        <path id="path844-7" class="st1" d="M29.1,46.7v7.2h1.7v-2.8h1.3l2.1,2.8h2.1l-2.1-2.8c.9-.3,1.6-1.1,1.6-2.1s-1-2.3-2.2-2.3h-4.4ZM30.9,48.2h2.5c.3,0,.7.3.7.7s-.3.7-.7.7h-2.5v-1.4Z"/>
        <path id="path830-7-6" class="st1" d="M35.7,37.8v1.6h-4.8v1.2h4.7v1.6h-4.7v1.4h4.8v1.6h-6.5v-7.2h6.5Z"/>
      </g>
    </g>
  </g>
</svg>