<?xml version="1.0" encoding="UTF-8"?>
<svg id="Capa_1" data-name="Capa 1" xmlns="http://www.w3.org/2000/svg" viewBox="0 0 1080 315.32">
  <defs>
    <style>
      .cls-1 {
        fill: #231815;
      }

      .cls-2 {
        fill: #e60012;
      }
    </style>
  </defs>
  <path class="cls-2" d="M185,183.93l-29.01,21.35-28.47-21.35,28.47-21.35,29.01,21.35ZM227.15,109.48l-57.48-43.25-14.23,10.4-14.23-10.4-56.38,43.25,14.23,10.4-28.47,21.35-14.23-10.4L-.03,172.98l14.23,10.95L-.03,194.33l56.38,42.15,14.23-10.95,28.47,21.35-14.23,10.4,56.38,43.25,14.23-10.4,14.23,10.4,56.38-42.15-14.23-10.4,27.92-21.35,14.23,10.95,56.38-42.15-14.23-11.5,14.23-10.4-56.38-42.15-14.23,10.4-27.92-21.35,14.78-10.4.55-.55Z"/>
  <g>
    <g>
      <path class="cls-1" d="M718.18,214.04h0l-32.84,99.08h-14.23l-32.84-99.08h0v99.08h-14.78v-114.41h24.09l30.66,92.51,30.66-92.51h24.09v114.41h-14.78v-99.08h0Z"/>
      <path class="cls-1" d="M742.82,198.71h14.78v114.41h-14.78v-114.41Z"/>
      <path class="cls-1" d="M452.69,217.32c-6.02-3.83-13.69-6.57-20.8-6.57-23.54,0-39.41,19.16-39.41,44.89s16.97,44.89,38.32,44.89c7.66,0,15.33-1.64,22.44-5.47l1.09,15.88c-7.12,2.74-15.33,4.38-23.54,4.38-27.92,0-53.65-23.54-53.65-59.67s22.99-58.57,53.65-58.57c7.66,0,15.88,1.64,22.99,4.93l-1.09,15.88v-.55Z"/>
      <path class="cls-1" d="M842.45,217.32c-6.02-4.38-13.69-6.57-20.8-6.57-23.54,0-39.41,19.16-39.41,44.89s16.97,44.89,38.32,44.89c7.66,0,15.33-1.64,22.44-5.47l1.09,15.88c-7.12,2.74-15.33,4.38-22.99,4.38-28.47,0-53.65-23.54-53.65-59.67s22.99-58.57,53.65-58.57c7.66,0,15.88,1.64,22.99,4.93l-1.64,15.88v-.55Z"/>
      <path class="cls-1" d="M920.18,270.42h-41.06l20.8-56.93,20.25,56.93ZM848.47,312.57h15.88l10.4-30.11h48.72l11.5,30.66h15.88l-43.25-114.41h-15.33l-43.79,113.86h0Z"/>
      <path class="cls-1" d="M1013.24,313.12h-58.03v-114.41h14.78v100.18h43.25v14.23h0Z"/>
      <path class="cls-1" d="M477.32,313.12h-14.78v-114.41h14.78v47.63h49.27v-47.63h14.78v114.41h-14.78v-54.19h-49.27v54.19Z"/>
      <path class="cls-1" d="M611.44,313.12h-57.48v-114.41h57.48v13.69h-42.7v33.94h38.87v12.59h-38.87v40.51h42.7v13.69Z"/>
    </g>
    <g>
      <path class="cls-1" d="M442.83,62.41c-8.76-2.74-18.06-4.38-27.37-4.38-10.4,0-23.54,4.38-23.54,13.69,0,21.9,58.03,17.52,58.03,57.48s-19.16,36.68-47.08,33.94c-8.76-1.09-17.52-3.28-25.73-6.02l2.19-14.78c8.21,3.83,16.42,6.02,25.73,6.57,13.14,0,29.56-5.47,29.56-18.61,0-32.84-57.48-23.54-57.48-56.38s16.42-28.47,39.41-28.47c9.85,0,19.71,1.64,29.01,3.83l-2.19,12.59-.55.55Z"/>
      <path class="cls-1" d="M532.61,118.24c0,32.3-14.23,45.44-38.32,45.44s-38.32-13.14-38.32-45.44V47.08h14.78v68.97c0,21.9,5.47,32.84,23.54,32.84s23.54-10.95,23.54-32.84V47.08h14.78v71.16Z"/>
      <path class="cls-1" d="M639.9,62.95h0l-32.84,99.08h-14.23l-32.84-99.08h0v99.08h-14.78V47.63h24.09l30.66,92.51,30.66-92.51h24.09v114.41h-14.78V62.95h0Z"/>
      <path class="cls-1" d="M962.33,62.95h0l-32.84,99.08h-14.23l-32.84-99.08h0v99.08h-14.78V47.63h24.09l30.66,92.51,30.66-92.51h24.09v114.41h-14.78V62.95h0Z"/>
      <path class="cls-1" d="M735.15,162.04h-14.78V61.86h-31.2v-14.23h77.19v14.23h-31.2v100.18h0Z"/>
      <path class="cls-1" d="M778.95,105.65c0-22.99,10.4-44.34,32.3-43.79,21.9,0,32.3,20.8,32.3,43.79s-9.85,43.79-32.3,43.79-32.3-21.35-32.3-43.79M763.62,105.65c0,33.94,17.52,58.03,47.63,58.03s47.63-24.09,47.63-58.03-17.52-58.03-47.63-58.03-47.63,25.18-47.63,58.03"/>
      <path class="cls-1" d="M1000.1,105.65c0-22.99,10.4-44.34,32.3-43.79,21.9,0,32.3,20.8,32.3,43.79s-9.85,43.79-32.3,43.79-32.3-21.35-32.3-43.79M985.32,105.65c0,33.94,17.52,58.03,47.63,58.03s47.08-24.09,47.08-58.03-16.97-58.03-47.08-58.03-47.08,25.18-47.08,58.03"/>
      <path class="cls-1" d="M665.08,47.63h14.78v114.41h-14.78V47.63Z"/>
      <path class="cls-2" d="M654.68,17.52l17.52-17.52,17.52,17.52-17.52,17.52-17.52-17.52Z"/>
    </g>
  </g>
</svg>