<?xml version="1.0" encoding="UTF-8"?>
<svg id="Capa_2" xmlns="http://www.w3.org/2000/svg" version="1.1" viewBox="0 0 58.5 58.5">
  <!-- Generator: Adobe Illustrator 30.1.0, SVG Export Plug-In . SVG Version: 2.1.1 Build 136)  -->
  <defs>
    <style>
      .st0 {
        fill: #15417b;
      }

      .st1 {
        fill: #15427c;
      }

      .st2 {
        fill: #16417a;
      }

      .st3 {
        fill: #16417b;
      }
    </style>
  </defs>
  <g id="Capa_1-2">
    <g>
      <path class="st2" d="M12,29.2v-15.5c0-.2,0-.4,0-.6.2-.6.8-1.1,1.5-1.1h31.2c.2,0,.4,0,.6,0,.7.2,1.2.8,1.2,1.5v31.1c0,.2,0,.4,0,.5-.2.7-.8,1.2-1.6,1.3H13.7c-.3,0-.5,0-.8-.1-.6-.3-1-.8-1-1.5,0-.9,0-1.9,0-2.8v-12.9h0ZM29.2,35.3h9.3c.3,0,.6,0,1,0,.5,0,1-.3,1.4-.6.4-.4.7-.8.8-1.3,0-.3.1-.5.1-.8,0-.6-.2-1.2-.4-1.8-.3-.7-.6-1.4-1-2-.1-.3-.2-.5-.3-.8,0-.4.1-.8.6-.9.1,0,.2,0,.3,0,.4-.1.6-.4.7-.8,0-.2,0-.4,0-.6s0-.1-.1-.1h-1.7c-.6,0-1.2.4-1.4,1,0,.2-.1.5-.1.7,0,.7,0,1.3,0,2,0,.2,0,.5-.1.7,0,.2-.2.3-.4.4-.2,0-.2,0-.2-.2,0-.2,0-.4,0-.7-.3-1.1-1.3-1.9-2.5-1.9-.7,0-1.3.3-1.8.7h0c0,.1-.1.1-.2,0,0,0,0,0,0,0-1-.9-2.4-1-3.4-.1,0,0-.1.1-.2.2,0,0-.1,0-.2,0,0,0,0,0,0,0-1-.9-2.5-.9-3.5,0h0c0,.1-.1.1-.2,0h0c-1.4-1.4-3.7-.8-4.2,1.1,0,.2,0,.4,0,.7,0,.2,0,.2-.2.2-.2,0-.4-.2-.5-.4,0-.2,0-.4,0-.6,0-.7,0-1.4,0-2.1,0-.2,0-.4,0-.6-.2-.7-.7-1.2-1.5-1.2h-1.6c-.2,0-.2,0-.2.2v.3c0,.5.3.9.8,1,.1,0,.2,0,.3,0,.3.1.5.4.5.7s0,.3,0,.5c-.2.4-.4.9-.6,1.3-.2.5-.5,1-.7,1.6-.3.6-.4,1.3-.3,2,.1.5.4,1,.7,1.4.3.3.6.5,1,.7.5.2,1,.2,1.5.2h9.3,0ZM26,14.5h-.2c-.8,0-1.6,0-2.5,0-.2,0-.4,0-.5.2-1.7,2-2.5,4.3-2,6.9.3,1.7,1,3.1,2.1,4.3.1.1.2.2.4.2h2.6s0,0,.2,0c-.5-.5-.9-1.1-1.2-1.7-.2-.4-.3-.7-.4-1.1-.3-.8-.5-1.7-.5-2.6,0-1,0-1.9.4-2.8.3-1.2.8-2.4,1.8-3.4h0ZM37.3,14.6s0,0,0,0h-2.7c-.1,0-.2,0-.3.1-.4.4-.7.9-1,1.4-1,1.8-1.5,3.7-1.1,5.7.3,1.6,1,3.1,2.1,4.3.1.1.2.2.4.2h2.6s0,0,.1,0c-.5-.5-.9-1.1-1.1-1.7-.3-.7-.6-1.5-.8-2.3-.2-.8-.3-1.6-.2-2.4,0-.7.2-1.4.4-2.1.3-1.2.8-2.3,1.7-3.2h0ZM31.6,14.6s0,0,0,0h-2.7c-.1,0-.2,0-.3.1-.4.4-.7.9-1,1.4-1,1.6-1.4,3.4-1.1,5.3.2,1.8,1,3.3,2.1,4.6.1.1.2.2.4.2h2.6s0,0,.1,0c0,0,0,0,0,0-.5-.4-.8-1-1.1-1.5-.5-1-.8-2-.9-3.1,0-.6-.1-1.2,0-1.8.1-1.1.4-2.1.8-3.2.3-.7.7-1.4,1.2-2,0,0,0,0,0,0h0ZM34.6,43.2c-.4-.8-.8-1.5-1.2-2.3,0,0,.2,0,.2-.1.5-.2.8-.6.9-1.1,0-.2,0-.5,0-.7,0-.7-.5-1.3-1.2-1.5-.3-.1-.6-.2-.9-.2h-2.9s0,0-.1,0v5.9h1.4v-2.1h1c.4.7.7,1.4,1.1,2.1h1.6ZM36.6,43.2c.2-.5.4-1.1.6-1.6h2.8c.1.3.2.5.3.8.2.4.4.6.9.7,0,0,0,0,.1,0h.8c-.8-2-1.5-4-2.3-5.9,0,0,0,0-.1,0h-1.6c-.5,0-.9.3-1.1.7-.6,1.7-1.3,3.4-1.9,5.1,0,0,0,0,0,.1h1.5ZM26.6,41.6c.2.5.4,1.1.6,1.6h1.5c0,0,0-.1,0-.2-.6-1.7-1.3-3.4-1.9-5-.2-.4-.7-.8-1.1-.8-.5,0-1,0-1.6,0s0,0-.1,0c-.7,2-1.5,3.9-2.2,6,.3,0,.5,0,.7,0,.4,0,1-.3,1.1-.7,0-.2.2-.5.3-.7,0,0,0-.1,0-.1h2.8,0ZM18.1,43.2h.8c.5,0,1-.3,1.1-.8.6-1.7,1.3-3.3,1.9-5,0,0,0-.1,0-.2h-1.6c-.3.9-.6,1.7-1,2.6,0,0,0-.2-.1-.2-.3-.6-.6-1.1-1-1.7-.2-.4-.6-.6-1-.7-.3,0-.6,0-.9,0,0,0,0,0,0,.1.1.3.3.5.4.8.6,1.1,1.2,2.2,1.9,3.3,0,.1,0,.2,0,.3,0,.2-.1.3-.2.5-.1.3-.2.6-.4,1h0Z"/>
      <path class="st0" d="M29.7,30c0-.9.7-1.5,1.5-1.5.9,0,1.6.7,1.5,1.5,0,.8-.7,1.5-1.5,1.5-.8,0-1.5-.7-1.5-1.5h0Z"/>
      <path class="st0" d="M33.6,30c0-.8.7-1.5,1.5-1.5.8,0,1.5.7,1.5,1.5,0,.8-.7,1.5-1.5,1.5s-1.5-.7-1.5-1.6h0Z"/>
      <path class="st0" d="M24.9,30c0,.8-.7,1.5-1.5,1.5-.8,0-1.5-.7-1.5-1.5s.7-1.5,1.6-1.5c.9,0,1.5.7,1.5,1.5h0Z"/>
      <path class="st3" d="M25.8,30c0-.8.7-1.5,1.6-1.5.8,0,1.5.7,1.5,1.6,0,.9-.7,1.5-1.6,1.5-.9,0-1.5-.7-1.5-1.6Z"/>
      <path class="st0" d="M30.9,40v-1.7s0,0,.1,0h1.2c.6,0,.9.3.9.9,0,.1,0,.2,0,.3,0,.3-.3.5-.7.5-.5,0-1,0-1.5,0h0Z"/>
      <path class="st1" d="M39.5,40.6h-2c0,0,0-.1,0-.2.3-.7.5-1.3.8-2,0,0,0-.1,0-.1,0-.1.2-.1.2,0,0,0,0,0,0,0,.3.7.5,1.4.8,2.2h0c0,0,0,0,0,0Z"/>
      <path class="st1" d="M26.2,40.6h-2c0,0,0-.1,0-.2.3-.7.5-1.3.8-2,0,0,0-.1,0-.2,0,0,.1,0,.2,0,0,0,0,0,0,.1.3.7.5,1.4.8,2.1,0,0,0,0,0,0h0Z"/>
    </g>
  </g>
</svg>